<svg width="610" height="188" viewBox="0 0 610 188" fill="none" xmlns="http://www.w3.org/2000/svg">
<path d="M525.249 150.514C515.946 150.514 507.991 148.495 501.384 144.458C494.777 140.286 489.72 134.096 486.215 125.887C482.844 117.543 481.158 106.912 481.158 93.9931C481.158 80.9396 482.776 70.3084 486.012 62.0994C489.248 53.7559 494.103 47.5656 500.575 43.5284C507.182 39.4912 515.406 37.4727 525.249 37.4727C535.227 37.4727 544.261 39.8277 552.351 44.5377C560.576 49.1132 567.048 55.6399 571.768 64.118C576.622 72.4615 579.049 82.4199 579.049 93.9931C579.049 105.566 576.622 115.592 571.768 124.07C567.048 132.548 560.576 139.075 552.351 143.65C544.261 148.226 535.227 150.514 525.249 150.514ZM456.281 187.857V39.2894H492.889V57.8604L492.687 93.9931L494.709 130.328V187.857H456.281ZM517.159 120.033C521.474 120.033 525.317 119.024 528.688 117.005C532.193 114.986 534.958 112.026 536.98 108.123C539.137 104.221 540.216 99.5106 540.216 93.9931C540.216 88.4756 539.137 83.7656 536.98 79.863C534.958 75.9604 532.193 72.9998 528.688 70.9812C525.317 68.9626 521.474 67.9533 517.159 67.9533C512.845 67.9533 508.934 68.9626 505.429 70.9812C502.058 72.9998 499.294 75.9604 497.136 79.863C495.114 83.7656 494.103 88.4756 494.103 93.9931C494.103 99.5106 495.114 104.221 497.136 108.123C499.294 112.026 502.058 114.986 505.429 117.005C508.934 119.024 512.845 120.033 517.159 120.033Z" fill="black"/>
<path d="M394.726 150.514C385.422 150.514 377.467 148.495 370.86 144.458C364.253 140.286 359.197 134.096 355.691 125.887C352.32 117.543 350.635 106.912 350.635 93.9931C350.635 80.9396 352.253 70.3084 355.489 62.0994C358.725 53.7559 363.579 47.5656 370.051 43.5284C376.658 39.4912 384.883 37.4727 394.726 37.4727C404.704 37.4727 413.738 39.8277 421.828 44.5377C430.053 49.1132 436.525 55.6399 441.244 64.118C446.098 72.4615 448.525 82.4199 448.525 93.9931C448.525 105.566 446.098 115.592 441.244 124.07C436.525 132.548 430.053 139.075 421.828 143.65C413.738 148.226 404.704 150.514 394.726 150.514ZM325.758 187.857V39.2894H362.366V57.8604L362.163 93.9931L364.186 130.328V187.857H325.758ZM386.636 120.033C390.951 120.033 394.793 119.024 398.164 117.005C401.67 114.986 404.434 112.026 406.457 108.123C408.614 104.221 409.693 99.5106 409.693 93.9931C409.693 88.4756 408.614 83.7656 406.457 79.863C404.434 75.9604 401.67 72.9998 398.164 70.9812C394.793 68.9626 390.951 67.9533 386.636 67.9533C382.321 67.9533 378.411 68.9626 374.905 70.9812C371.534 72.9998 368.77 75.9604 366.613 79.863C364.59 83.7656 363.579 88.4756 363.579 93.9931C363.579 99.5106 364.59 104.221 366.613 108.123C368.77 112.026 371.534 114.986 374.905 117.005C378.411 119.024 382.321 120.033 386.636 120.033Z" fill="black"/>
<path d="M263.566 150.514C250.622 150.514 239.296 148.091 229.588 143.247C220.015 138.267 212.531 131.539 207.138 123.061C201.879 114.448 199.25 104.692 199.25 93.7913C199.25 82.8909 201.812 73.2017 206.936 64.7236C212.194 56.111 219.408 49.4496 228.577 44.7396C237.745 39.895 248.06 37.4727 259.521 37.4727C270.308 37.4727 280.151 39.6931 289.05 44.134C297.949 48.4403 305.028 54.8325 310.287 63.3106C315.545 71.7887 318.175 82.0835 318.175 94.195C318.175 95.5407 318.107 97.0883 317.972 98.8377C317.838 100.587 317.703 102.202 317.568 103.682H230.801V83.4965H297.14L282.578 89.1485C282.713 84.1693 281.769 79.863 279.747 76.2295C277.859 72.5961 275.162 69.7701 271.656 67.7515C268.286 65.7329 264.308 64.7236 259.724 64.7236C255.139 64.7236 251.094 65.7329 247.588 67.7515C244.218 69.7701 241.588 72.6634 239.701 76.4314C237.813 80.0649 236.869 84.3712 236.869 89.3504V95.2043C236.869 100.587 237.948 105.23 240.105 109.133C242.397 113.035 245.633 116.063 249.813 118.216C253.993 120.235 258.982 121.244 264.78 121.244C270.173 121.244 274.758 120.504 278.533 119.024C282.443 117.409 286.286 114.986 290.061 111.757L310.287 132.75C305.028 138.537 298.556 142.978 290.87 146.073C283.185 149.033 274.084 150.514 263.566 150.514Z" fill="black"/>
<path d="M177.872 150.516C163.849 150.516 152.927 147.085 145.107 140.222C137.287 133.224 133.376 122.727 133.376 108.732V14.8672H171.804V108.328C171.804 112.23 172.883 115.326 175.04 117.613C177.198 119.766 179.962 120.843 183.333 120.843C187.917 120.843 191.827 119.699 195.063 117.411L204.569 144.259C201.333 146.412 197.356 147.959 192.636 148.901C187.917 149.978 182.996 150.516 177.872 150.516ZM117.398 71.9932V43.3293H196.884V71.9932H117.398Z" fill="black"/>
<path d="M59.6646 151.527C48.0687 151.527 36.8774 150.114 26.0906 147.288C15.4386 144.328 6.74176 140.56 0 135.984L13.1464 106.513C19.4837 110.55 26.7648 113.914 34.9897 116.606C43.3495 119.163 51.6419 120.441 59.8668 120.441C65.395 120.441 69.8446 119.97 73.2155 119.028C76.5864 117.952 79.0134 116.606 80.4966 114.991C82.1146 113.242 82.9236 111.223 82.9236 108.935C82.9236 105.705 81.4404 103.149 78.4741 101.265C75.5077 99.3806 71.6649 97.833 66.9456 96.6218C62.2264 95.4107 56.9678 94.1995 51.1699 92.9884C45.5069 91.7772 39.7764 90.2296 33.9785 88.3456C28.3154 86.4616 23.1242 84.0393 18.405 81.0787C13.6858 77.9835 9.84297 74.0136 6.87659 69.169C3.91022 64.1898 2.42703 57.9322 2.42703 50.3962C2.42703 41.9181 4.71923 34.2475 9.30363 27.3843C14.0229 20.5211 21.0343 15.0036 30.3379 10.8318C39.6415 6.6601 51.2374 4.57422 65.1254 4.57422C74.429 4.57422 83.5304 5.6508 92.4295 7.80397C101.463 9.82255 109.486 12.8504 116.498 16.8876L104.16 46.5608C97.4184 42.9274 90.7441 40.2359 84.1371 38.4865C77.5302 36.6025 71.1255 35.6605 64.9231 35.6605C59.3949 35.6605 54.9453 36.2661 51.5744 37.4772C48.2036 38.5538 45.7765 40.0341 44.2933 41.9181C42.8102 43.8021 42.0686 45.9553 42.0686 48.3776C42.0686 51.4727 43.4843 53.9623 46.3159 55.8464C49.2822 57.5958 53.125 59.0761 57.8443 60.2873C62.6983 61.3638 67.9569 62.5077 73.62 63.7188C79.4179 64.93 85.1484 66.4776 90.8115 68.3616C96.6094 70.111 101.868 72.5333 106.587 75.6285C111.306 78.5891 115.082 82.559 117.913 87.5382C120.88 92.3828 122.363 98.5058 122.363 105.907C122.363 114.116 120.003 121.72 115.284 128.717C110.7 135.581 103.756 141.098 94.452 145.27C85.2832 149.442 73.6874 151.527 59.6646 151.527Z" fill="black"/>
<circle cx="592.023" cy="17.9212" r="15.267" stroke="black" stroke-width="4.58213"/>
<path d="M592.012 23.5712C590.263 23.5712 588.897 23.1241 587.915 22.2299C586.932 21.3358 586.441 20.0682 586.441 18.4271V12.3047H589.794V18.3324C589.794 19.2792 589.992 19.9577 590.387 20.368C590.793 20.7782 591.346 20.9834 592.046 20.9834C592.746 20.9834 593.293 20.7782 593.689 20.368C594.084 19.9577 594.281 19.2792 594.281 18.3324V12.3047H597.583V18.4271C597.583 20.0682 597.092 21.3358 596.11 22.2299C595.128 23.1241 593.762 23.5712 592.012 23.5712Z" fill="black"/>
<path fill-rule="evenodd" clip-rule="evenodd" d="M585.527 11.4453H590.714V18.3278C590.714 19.1959 590.902 19.6118 591.068 19.7883C591.271 19.9908 591.562 20.124 592.049 20.124C592.541 20.124 592.82 19.9888 593.009 19.7924C593.177 19.6183 593.367 19.2027 593.367 18.3278V11.4453H598.503V18.4224C598.503 20.2253 597.959 21.7395 596.754 22.8366C595.557 23.9265 593.936 24.4212 592.015 24.4212C590.095 24.4212 588.474 23.9265 587.277 22.8366C586.072 21.7395 585.527 20.2253 585.527 18.4224V11.4453ZM587.362 13.1547V18.4224C587.362 19.9017 587.8 20.9228 588.559 21.6139C589.326 22.3124 590.436 22.7118 592.015 22.7118C593.594 22.7118 594.705 22.3124 595.472 21.6139C596.231 20.9228 596.669 19.9017 596.669 18.4224V13.1547H595.201V18.3278C595.201 19.3463 594.997 20.2878 594.374 20.9342C593.773 21.5584 592.957 21.8334 592.049 21.8334C591.14 21.8334 590.325 21.5584 589.716 20.943L589.707 20.9342C589.085 20.2878 588.88 19.3463 588.88 18.3278V13.1547H587.362Z" fill="black"/>
</svg>
